<svg width="75" height="82" viewBox="0 0 75 82" fill="none" xmlns="http://www.w3.org/2000/svg">
<path fill-rule="evenodd" clip-rule="evenodd" d="M16.9355 20.5253C16.9355 9.18948 26.1425 0 37.5 0C48.8575 0 58.0645 9.18948 58.0645 20.5253C58.0645 31.8611 48.8575 41.0506 37.5 41.0506C26.1425 41.0506 16.9355 31.8611 16.9355 20.5253ZM37.5 7.24422C30.1511 7.24422 24.1936 13.1904 24.1936 20.5253C24.1936 27.8602 30.1511 33.8064 37.5 33.8064C44.849 33.8064 50.8065 27.8602 50.8065 20.5253C50.8065 13.1904 44.849 7.24422 37.5 7.24422Z" fill="white"/>
<path fill-rule="evenodd" clip-rule="evenodd" d="M18.1452 55.539C12.1324 55.539 7.25806 60.404 7.25806 66.4053V72.1441C7.25806 72.2315 7.32151 72.306 7.40792 72.3201C27.3374 75.5677 47.6626 75.5677 67.5921 72.3201C67.6785 72.306 67.7419 72.2315 67.7419 72.1441V66.4053C67.7419 60.404 62.8676 55.539 56.8548 55.539H55.2055C55.0779 55.539 54.9512 55.5591 54.83 55.5987L50.642 56.9635C42.1025 59.7466 32.8975 59.7466 24.358 56.9635L20.17 55.5987C20.0488 55.5591 19.9221 55.539 19.7945 55.539H18.1452ZM0 66.4053C0 56.4032 8.12386 48.2948 18.1452 48.2948H19.7945C20.6872 48.2948 21.5743 48.4357 22.4229 48.7123L26.6109 50.0772C33.6865 52.3831 41.3135 52.3831 48.3891 50.0772L52.5771 48.7123C53.4257 48.4357 54.3128 48.2948 55.2055 48.2948H56.8548C66.8761 48.2948 75 56.4032 75 66.4053V72.1441C75 75.7818 72.3586 78.8835 68.7616 79.4697C48.0576 82.8435 26.9424 82.8435 6.23841 79.4697C2.64137 78.8835 0 75.7818 0 72.1441V66.4053Z" fill="white"/>
</svg>
