<svg width="64" height="90" viewBox="0 0 64 90" fill="none" xmlns="http://www.w3.org/2000/svg">
<path fill-rule="evenodd" clip-rule="evenodd" d="M25.4087 1.14273C26.2108 0.216757 27.4563 -0.190198 28.648 0.0843116C44.5767 3.75344 52.628 21.2667 50.7346 36.9355C49.9985 43.0265 48.1802 47.8016 45.5025 51.6007C45.4862 51.624 45.4698 51.6471 45.4534 51.6703C46.0615 51.3703 46.6226 51.0467 47.1477 50.7047C49.7603 49.0034 51.6779 46.758 54.1746 43.8344C54.4764 43.481 54.7866 43.1177 55.1076 42.7443C55.8288 41.9051 56.9197 41.4821 58.016 41.6165C59.1123 41.7508 60.0695 42.4249 60.5682 43.4137C62.7642 47.7679 64 52.6904 64 57.893C64 75.6252 49.6731 90 32 90C14.3269 90 0 75.6252 0 57.893C0 46.6575 5.75429 36.7726 14.4521 31.04L14.7503 30.7385C14.9035 30.5837 15.0715 30.4443 15.252 30.3225C19.0737 27.7422 21.8179 25.6319 23.6655 23.15C25.4108 20.8054 26.4828 17.9454 26.4828 13.6074C26.4828 10.3954 25.8917 7.32979 24.8156 4.50865C24.3786 3.36288 24.6066 2.0687 25.4087 1.14273ZM32.7557 8.8607C32.9848 10.4106 33.1034 11.9957 33.1034 13.6074C33.1034 19.2246 31.657 23.5154 28.9699 27.1251C26.4463 30.5152 22.9529 33.1188 19.2206 35.6494L18.9014 35.9721C18.7305 36.145 18.5411 36.2984 18.3366 36.4298C11.2838 40.9603 6.62069 48.8813 6.62069 57.893C6.62069 71.9565 17.9834 83.3572 32 83.3572C46.0166 83.3572 57.3793 71.9565 57.3793 57.893C57.3793 55.5909 57.0756 53.363 56.5068 51.2458C54.8286 53.069 52.9763 54.8285 50.7521 56.2769C46.677 58.9305 41.5776 60.4454 34.2069 60.4454C32.6963 60.4454 31.3772 59.4193 31.0009 57.9514C30.6246 56.4835 31.2864 54.9462 32.6096 54.2149C35.6057 52.5588 38.1454 50.5341 40.0969 47.7653C42.0443 45.0022 43.5364 41.3129 44.162 36.1359C45.5164 24.9284 40.8935 13.8661 32.7557 8.8607Z" fill="white"/>
</svg>
